<svg width="19" height="17" viewBox="0 0 19 17" fill="none" xmlns="http://www.w3.org/2000/svg">
<path d="M9.9668 0.946777C4.97461 0.946777 0.966797 4.25146 0.966797 8.25928C0.966797 9.94678 1.63477 11.4937 2.79492 12.7241C2.30273 14.0952 1.21289 15.2905 1.17773 15.2905C0.931641 15.5366 0.896484 15.8882 1.00195 16.2046C1.14258 16.521 1.45898 16.6968 1.81055 16.6968C3.95508 16.6968 5.67773 15.8179 6.69727 15.0796C7.7168 15.396 8.80664 15.5718 9.9668 15.5718C14.9238 15.5718 18.9668 12.3022 18.9668 8.25928C18.9668 4.25146 14.9238 0.946777 9.9668 0.946777ZM9.9668 13.8843C9.01758 13.8843 8.06836 13.7437 7.18945 13.4624L6.38086 13.2163L5.71289 13.7085C5.2207 14.0601 4.51758 14.4468 3.67383 14.728C3.95508 14.3062 4.20117 13.814 4.37695 13.3218L4.76367 12.3374L4.02539 11.564C3.39258 10.896 2.6543 9.771 2.6543 8.25928C2.6543 5.16553 5.92383 2.63428 9.9668 2.63428C13.9746 2.63428 17.2793 5.16553 17.2793 8.25928C17.2793 11.3882 13.9746 13.8843 9.9668 13.8843Z" fill="#BDBDBD"/>
</svg>
