<svg width="20" height="17" viewBox="0 0 20 17" fill="none" xmlns="http://www.w3.org/2000/svg">
<path d="M17.0684 2.10693C15.0293 0.384277 11.9004 0.630371 9.9668 2.63428C7.99805 0.630371 4.86914 0.384277 2.83008 2.10693C0.193359 4.32178 0.580078 7.94287 2.47852 9.87646L8.63086 16.1694C8.98242 16.521 9.43945 16.7319 9.9668 16.7319C10.459 16.7319 10.916 16.521 11.2676 16.1694L17.4551 9.87646C19.3184 7.94287 19.7051 4.32178 17.0684 2.10693ZM16.2246 8.68115L10.0723 14.9741C10.002 15.0444 9.93164 15.0444 9.82617 14.9741L3.67383 8.68115C2.37305 7.38037 2.12695 4.91943 3.91992 3.40771C5.29102 2.24756 7.40039 2.42334 8.73633 3.75928L9.9668 5.0249L11.1973 3.75928C12.498 2.42334 14.6074 2.24756 15.9785 3.37256C17.7715 4.91943 17.5254 7.38037 16.2246 8.68115Z" fill="#BDBDBD"/>
</svg>
