<svg width="12" height="17" viewBox="0 0 12 17" fill="none" xmlns="http://www.w3.org/2000/svg">
<path d="M3.20605 14.7034C3.20605 14.8909 3.2373 15.0784 3.3623 15.2659L3.89355 16.0471C4.08105 16.3284 4.39355 16.5159 4.7373 16.5159H6.64355C6.9873 16.5159 7.2998 16.3284 7.4873 16.0471L8.01855 15.2659C8.1123 15.0784 8.1748 14.8909 8.1748 14.7034V13.4846H3.20605V14.7034ZM0.206051 5.98462C0.206051 7.39087 0.706051 8.64087 1.5498 9.60962C2.08105 10.2034 2.8623 11.4534 3.1748 12.4846C3.1748 12.4846 3.1748 12.4846 3.1748 12.5159H8.20605C8.20605 12.4846 8.20605 12.4846 8.20605 12.4846C8.51855 11.4534 9.2998 10.2034 9.83105 9.60962C10.6748 8.64087 11.2061 7.39087 11.2061 5.98462C11.2061 2.95337 8.70605 0.484619 5.6748 0.484619C2.4873 0.515869 0.206051 3.07837 0.206051 5.98462ZM5.70605 3.48462C4.2998 3.48462 3.20605 4.60962 3.20605 5.98462C3.20605 6.26587 2.95605 6.48462 2.70605 6.48462C2.4248 6.48462 2.20605 6.26587 2.20605 5.98462C2.20605 4.07837 3.76855 2.48462 5.70605 2.48462C5.95605 2.48462 6.20605 2.73462 6.20605 2.98462C6.20605 3.26587 5.95605 3.48462 5.70605 3.48462Z" fill="#5831E9"/>
</svg>
