<svg width="16" height="15" viewBox="0 0 16 15" fill="none" xmlns="http://www.w3.org/2000/svg">
<path d="M9.90699 5.54858C9.74293 5.38452 9.55152 5.22046 9.36011 5.08374C9.16871 4.94702 8.94996 4.97437 8.7859 5.11108L8.21168 5.6853C7.99293 5.9314 7.88355 6.23218 7.88355 6.50562C7.88355 6.66968 7.96558 6.77905 8.07496 6.86108C8.15699 6.91577 8.26636 6.9978 8.37574 7.07983C9.14136 7.8728 9.14136 9.10327 8.37574 9.8689L6.51636 11.7009C5.75074 12.4939 4.49293 12.4939 3.7273 11.7009C2.96168 10.9353 2.98902 9.67749 3.75465 8.91187L4.11011 8.5564C4.24683 8.44702 4.27418 8.25562 4.21949 8.09155C4.05543 7.62671 3.9734 7.13452 3.94605 6.66968C3.94605 6.28687 3.48121 6.09546 3.20777 6.3689L2.19605 7.38062C0.582771 8.9939 0.582771 11.6462 2.19605 13.2595C3.80933 14.8728 6.46168 14.8728 8.07496 13.2595L9.90699 11.4275C9.90699 11.4275 9.90699 11.4275 9.90699 11.4001C11.5203 9.81421 11.5476 7.18921 9.90699 5.54858ZM13.7625 1.69312C12.1492 0.079834 9.49683 0.079834 7.88355 1.69312L6.05152 3.52515C6.05152 3.52515 6.05152 3.52515 6.05152 3.55249C4.43824 5.13843 4.4109 7.76343 6.05152 9.40405C6.21558 9.56812 6.40699 9.73218 6.5984 9.8689C6.7898 10.0056 7.00855 9.97827 7.17261 9.84155L7.74683 9.26733C7.96558 9.02124 8.07496 8.72046 8.07496 8.44702C8.07496 8.28296 7.99293 8.17358 7.88355 8.09155C7.80152 8.03687 7.69215 7.95483 7.58277 7.8728C6.81715 7.07983 6.81715 5.84937 7.58277 5.08374L9.44215 3.25171C10.2078 2.45874 11.4656 2.45874 12.2312 3.25171C12.9968 4.01733 12.9695 5.27515 12.2039 6.04077L11.8484 6.39624C11.7117 6.50562 11.6843 6.69702 11.739 6.86108C11.9031 7.32593 11.9851 7.81812 12.0125 8.28296C12.0125 8.66577 12.4773 8.85718 12.7507 8.58374L13.7625 7.57202C15.3757 5.95874 15.3757 3.3064 13.7625 1.69312Z" fill="#BDBDBD"/>
</svg>
