<svg width="15" height="15" viewBox="0 0 15 15" fill="none" xmlns="http://www.w3.org/2000/svg">
<path d="M13.1567 0.554199L4.40674 3.12451C4.07861 3.23389 3.80518 3.6167 3.80518 3.97217V11.1089C3.55908 11.0542 3.14893 11.0269 2.93018 10.9995C1.48096 10.9995 0.305176 11.7925 0.305176 12.7495C0.305176 13.7339 1.48096 14.4995 2.93018 14.4995C4.37939 14.4995 5.55518 13.7339 5.55518 12.7495V6.37842L12.5552 4.32764V9.35889C12.3091 9.3042 11.8989 9.27686 11.6802 9.24951C10.231 9.24951 9.05518 10.0425 9.05518 10.9995C9.05518 11.9839 10.231 12.7495 11.6802 12.7495C13.1294 12.7495 14.3052 11.9839 14.3052 10.9995V1.37451C14.2778 0.909668 13.895 0.526855 13.4302 0.526855C13.3481 0.526855 13.2114 0.526855 13.1567 0.554199Z" fill="white"/>
</svg>
