<svg width="20" height="17" viewBox="0 0 20 17" fill="none" xmlns="http://www.w3.org/2000/svg">
<path d="M18.6504 6.50146L19.3231 5.76152L19.3136 5.75296L19.304 5.74464L18.6504 6.50146ZM12.4629 1.15771L11.808 1.91341L11.8093 1.91454L12.4629 1.15771ZM11.0918 4.63818L11.098 5.63816L12.0918 5.63199V4.63818H11.0918ZM3.88477 16.5913L4.49448 15.7987L4.48382 15.7905L4.47294 15.7826L3.88477 16.5913ZM4.86914 15.9233L3.91407 16.2197L3.91466 16.2216L4.86914 15.9233ZM11.0918 9.41943H12.0918V8.40653L11.079 8.41952L11.0918 9.41943ZM12.4629 13.146L11.8093 12.3892L11.808 12.3903L12.4629 13.146ZM18.6504 7.80225L19.304 8.55907L19.3136 8.55075L19.3231 8.54219L18.6504 7.80225ZM19.304 5.74464L13.1165 0.400892L11.8093 1.91454L17.9968 7.25829L19.304 5.74464ZM13.1178 0.402026C11.9041 -0.649883 10.0918 0.282237 10.0918 1.82568H12.0918C12.0918 1.83738 12.0868 1.86548 12.0676 1.89469C12.0509 1.92014 12.03 1.93656 12.0095 1.94632C11.9894 1.95591 11.9591 1.964 11.9193 1.95972C11.8745 1.95491 11.8337 1.93573 11.808 1.9134L13.1178 0.402026ZM10.0918 1.82568V4.63818H12.0918V1.82568H10.0918ZM11.0856 3.6382C8.23162 3.65593 5.49082 3.95036 3.44003 5.03258C2.39256 5.58534 1.50748 6.35232 0.891231 7.39854C0.276391 8.44237 -0.0332031 9.70014 -0.0332031 11.1772H1.9668C1.9668 9.98247 2.21531 9.09132 2.61451 8.41359C3.0123 7.73825 3.59718 7.21105 4.37345 6.8014C5.97012 5.95882 8.29182 5.65559 11.098 5.63816L11.0856 3.6382ZM-0.0332031 11.1772C-0.0332031 13.7062 1.54799 16.1283 3.29659 17.4L4.47294 15.7826C3.12779 14.8043 1.9668 12.9373 1.9668 11.1772H-0.0332031ZM3.27505 17.3839C3.90721 17.8702 4.6737 17.7623 5.16896 17.4321C5.67253 17.0964 6.06955 16.412 5.82362 15.6251L3.91466 16.2216C3.88661 16.1319 3.89129 16.0247 3.93017 15.9311C3.96494 15.8473 4.01684 15.7965 4.05956 15.768C4.13294 15.7191 4.31935 15.664 4.49448 15.7987L3.27505 17.3839ZM5.8242 15.6269C5.05907 13.1615 5.39254 12.0865 6.0067 11.5229C6.36262 11.1963 6.92909 10.9187 7.80077 10.7245C8.66852 10.5312 9.76427 10.4365 11.1046 10.4194L11.079 8.41952C9.67714 8.43749 8.4262 8.53617 7.36585 8.7724C6.30944 9.00777 5.36638 9.396 4.65443 10.0494C3.13285 11.4457 3.09718 13.5875 3.91408 16.2197L5.8242 15.6269ZM10.0918 9.41943V12.478H12.0918V9.41943H10.0918ZM10.0918 12.478C10.0918 14.0215 11.9041 14.9536 13.1178 13.9017L11.808 12.3903C11.8337 12.368 11.8745 12.3488 11.9193 12.344C11.9591 12.3397 11.9894 12.3478 12.0095 12.3574C12.03 12.3672 12.0509 12.3836 12.0676 12.409C12.0868 12.4382 12.0918 12.4663 12.0918 12.478H10.0918ZM13.1165 13.9028L19.304 8.55907L17.9968 7.04542L11.8093 12.3892L13.1165 13.9028ZM19.3231 8.54219C20.1462 7.79386 20.1462 6.50985 19.3231 5.76152L17.9777 7.2414C17.9566 7.22217 17.9404 7.18802 17.9404 7.15186C17.9404 7.11569 17.9566 7.08154 17.9777 7.06231L19.3231 8.54219Z" fill="#BDBDBD"/>
</svg>
