<svg width="12" height="13" viewBox="0 0 12 13" fill="none" xmlns="http://www.w3.org/2000/svg">
<path d="M11.6631 7.22656C11.874 6.875 11.9912 6.5 11.9912 6.05469C11.9912 5.02344 11.1006 4.0625 9.97559 4.0625H9.1084C9.22559 3.75781 9.31934 3.40625 9.31934 2.96094C9.31934 1.25 8.42871 0.5 7.09277 0.5C5.63965 0.5 5.7334 2.72656 5.40527 3.05469C4.86621 3.59375 4.2334 4.625 3.78809 5H1.49121C1.06934 5 0.741211 5.35156 0.741211 5.75V11.375C0.741211 11.7969 1.06934 12.125 1.49121 12.125H2.99121C3.31934 12.125 3.62402 11.8906 3.69434 11.5859C4.74902 11.6094 5.47559 12.5 7.86621 12.5C8.05371 12.5 8.24121 12.5 8.40527 12.5C10.21 12.5 11.0068 11.5859 11.0303 10.2734C11.3584 9.85156 11.5225 9.26562 11.4521 8.70312C11.6865 8.28125 11.7568 7.76562 11.6631 7.22656ZM10.21 8.49219C10.5146 8.98438 10.2334 9.64062 9.88184 9.85156C10.0693 10.9766 9.45996 11.375 8.63965 11.375H7.74902C6.08496 11.375 4.9834 10.5078 3.74121 10.5078V6.125H3.97559C4.65527 6.125 5.56934 4.48438 6.20215 3.85156C6.8584 3.19531 6.64746 2.07031 7.09277 1.625C8.19434 1.625 8.19434 2.39844 8.19434 2.96094C8.19434 3.875 7.53809 4.29688 7.53809 5.1875H9.97559C10.4678 5.1875 10.8428 5.63281 10.8662 6.07812C10.8662 6.5 10.5615 6.94531 10.3271 6.94531C10.6553 7.29688 10.7256 8.02344 10.21 8.49219ZM2.80371 10.625C2.80371 10.9531 2.5459 11.1875 2.24121 11.1875C1.91309 11.1875 1.67871 10.9531 1.67871 10.625C1.67871 10.3203 1.91309 10.0625 2.24121 10.0625C2.5459 10.0625 2.80371 10.3203 2.80371 10.625Z" fill="#828282"/>
</svg>
