<svg width="19" height="19" viewBox="0 0 19 19" fill="none" xmlns="http://www.w3.org/2000/svg">
<path d="M12.2168 7.57178V6.57178H11.2168V7.57178H12.2168ZM7.7168 7.57178H8.7168V6.57178H7.7168V7.57178ZM13.3418 13.1968V12.1968H12.3418V13.1968H13.3418ZM6.5918 13.1968H7.5918V12.1968H6.5918V13.1968ZM11.373 15.3218C12.3548 15.3218 13.2168 14.5496 13.2168 13.478H11.2168C11.2168 13.4686 11.219 13.4497 11.2288 13.4266C11.2384 13.4041 11.2525 13.3837 11.2695 13.3672C11.3036 13.3341 11.3431 13.3218 11.373 13.3218V15.3218ZM13.2168 13.478V7.57178H11.2168V13.478H13.2168ZM12.2168 8.57178H15.2754V6.57178H12.2168V8.57178ZM15.2754 8.57178C16.7873 8.57178 17.57 6.76468 16.4747 5.66936L15.0605 7.08357C15.0344 7.05751 15.002 7.00731 14.9892 6.93813C14.9772 6.87354 14.9859 6.81163 15.0076 6.7597C15.054 6.64885 15.1679 6.57178 15.2754 6.57178V8.57178ZM16.4747 5.66936L11.1309 0.325608L9.71672 1.73982L15.0605 7.08357L16.4747 5.66936ZM11.1309 0.325608C10.7899 -0.0153931 10.3439 -0.151855 9.94922 -0.151855C9.55458 -0.151855 9.1085 -0.0153931 8.7675 0.325608L10.1817 1.73982C10.0868 1.83473 9.9923 1.84814 9.94922 1.84814C9.90614 1.84814 9.81163 1.83473 9.71672 1.73982L11.1309 0.325608ZM8.7675 0.325608L3.42375 5.66936L4.83797 7.08357L10.1817 1.73982L8.7675 0.325608ZM3.42375 5.66936C2.32843 6.76468 3.11112 8.57178 4.62305 8.57178V6.57178C4.73056 6.57178 4.84449 6.64885 4.89084 6.7597C4.91256 6.81163 4.92121 6.87354 4.90925 6.93813C4.89644 7.00731 4.86403 7.05751 4.83797 7.08357L3.42375 5.66936ZM4.62305 8.57178H7.7168V6.57178H4.62305V8.57178ZM6.7168 7.57178V13.478H8.7168V7.57178H6.7168ZM6.7168 13.478C6.7168 14.5225 7.51607 15.3218 8.56055 15.3218V13.3218C8.55905 13.3218 8.60899 13.3252 8.66121 13.3774C8.71342 13.4296 8.7168 13.4795 8.7168 13.478H6.7168ZM8.56055 15.3218H11.373V13.3218H8.56055V15.3218ZM19.9668 14.0405C19.9668 13.0312 19.1324 12.1968 18.123 12.1968V14.1968C18.0653 14.1968 18.0275 14.1727 18.0092 14.1544C17.9909 14.136 17.9668 14.0982 17.9668 14.0405H19.9668ZM18.123 12.1968H13.3418V14.1968H18.123V12.1968ZM12.3418 13.1968V13.478H14.3418V13.1968H12.3418ZM12.3418 13.478C12.3418 14.0041 11.8871 14.4468 11.373 14.4468V16.4468C12.9684 16.4468 14.3418 15.1317 14.3418 13.478H12.3418ZM11.373 14.4468H8.56055V16.4468H11.373V14.4468ZM8.56055 14.4468C8.02299 14.4468 7.5918 14.0156 7.5918 13.478H5.5918C5.5918 15.1202 6.91842 16.4468 8.56055 16.4468V14.4468ZM7.5918 13.478V13.1968H5.5918V13.478H7.5918ZM6.5918 12.1968H1.81055V14.1968H6.5918V12.1968ZM1.81055 12.1968C0.738948 12.1968 -0.0332031 13.0587 -0.0332031 14.0405H1.9668C1.9668 14.0705 1.95445 14.11 1.92138 14.1441C1.90486 14.1611 1.88448 14.1752 1.862 14.1848C1.83887 14.1946 1.82002 14.1968 1.81055 14.1968V12.1968ZM-0.0332031 14.0405V17.978H1.9668V14.0405H-0.0332031ZM-0.0332031 17.978C-0.0332031 19.0225 0.766075 19.8218 1.81055 19.8218V17.8218C1.80905 17.8218 1.85899 17.8252 1.91121 17.8774C1.96342 17.9296 1.9668 17.9795 1.9668 17.978H-0.0332031ZM1.81055 19.8218H18.123V17.8218H1.81055V19.8218ZM18.123 19.8218C19.1048 19.8218 19.9668 19.0496 19.9668 17.978H17.9668C17.9668 17.9686 17.969 17.9497 17.9788 17.9266C17.9884 17.9041 18.0025 17.8837 18.0195 17.8672C18.0536 17.8341 18.0931 17.8218 18.123 17.8218V19.8218ZM19.9668 17.978V14.0405H17.9668V17.978H19.9668ZM13.6074 17.1343C13.6074 16.9687 13.7387 16.8374 13.9043 16.8374V18.8374C14.8433 18.8374 15.6074 18.0733 15.6074 17.1343H13.6074ZM13.9043 16.8374C14.0699 16.8374 14.2012 16.9687 14.2012 17.1343H12.2012C12.2012 18.0733 12.9653 18.8374 13.9043 18.8374V16.8374ZM14.2012 17.1343C14.2012 17.2998 14.0699 17.4312 13.9043 17.4312V15.4312C12.9653 15.4312 12.2012 16.1953 12.2012 17.1343H14.2012ZM13.9043 17.4312C13.7387 17.4312 13.6074 17.2998 13.6074 17.1343H15.6074C15.6074 16.1953 14.8433 15.4312 13.9043 15.4312V17.4312ZM15.8574 17.1343C15.8574 16.9687 15.9887 16.8374 16.1543 16.8374V18.8374C17.0933 18.8374 17.8574 18.0733 17.8574 17.1343H15.8574ZM16.1543 16.8374C16.3199 16.8374 16.4512 16.9687 16.4512 17.1343H14.4512C14.4512 18.0733 15.2153 18.8374 16.1543 18.8374V16.8374ZM16.4512 17.1343C16.4512 17.2998 16.3199 17.4312 16.1543 17.4312V15.4312C15.2153 15.4312 14.4512 16.1953 14.4512 17.1343H16.4512ZM16.1543 17.4312C15.9887 17.4312 15.8574 17.2998 15.8574 17.1343H17.8574C17.8574 16.1953 17.0933 15.4312 16.1543 15.4312V17.4312Z" fill="#BDBDBD"/>
</svg>
