<svg width="84" height="20" viewBox="0 0 84 20" fill="none" xmlns="http://www.w3.org/2000/svg">
<path d="M17.4141 2.93335C15.375 1.21069 12.2461 1.45679 10.3125 3.46069C8.34375 1.45679 5.21484 1.21069 3.17578 2.93335C0.539062 5.14819 0.925781 8.76929 2.82422 10.7029L8.97656 16.9958C9.32812 17.3474 9.78516 17.5583 10.3125 17.5583C10.8047 17.5583 11.2617 17.3474 11.6133 16.9958L17.8008 10.7029C19.6641 8.76929 20.0508 5.14819 17.4141 2.93335ZM16.5703 9.50757L10.418 15.8005C10.3477 15.8708 10.2773 15.8708 10.1719 15.8005L4.01953 9.50757C2.71875 8.20679 2.47266 5.74585 4.26562 4.23413C5.63672 3.07397 7.74609 3.24976 9.08203 4.58569L10.3125 5.85132L11.543 4.58569C12.8438 3.24976 14.9531 3.07397 16.3242 4.19897C18.1172 5.74585 17.8711 8.20679 16.5703 9.50757ZM42.375 1.77319C37.3828 1.77319 33.375 5.07788 33.375 9.08569C33.375 10.7732 34.043 12.3201 35.2031 13.5505C34.7109 14.9216 33.6211 16.1169 33.5859 16.1169C33.3398 16.363 33.3047 16.7146 33.4102 17.031C33.5508 17.3474 33.8672 17.5232 34.2188 17.5232C36.3633 17.5232 38.0859 16.6443 39.1055 15.906C40.125 16.2224 41.2148 16.3982 42.375 16.3982C47.332 16.3982 51.375 13.1287 51.375 9.08569C51.375 5.07788 47.332 1.77319 42.375 1.77319ZM42.375 14.7107C41.4258 14.7107 40.4766 14.5701 39.5977 14.2888L38.7891 14.0427L38.1211 14.5349C37.6289 14.8865 36.9258 15.2732 36.082 15.5544C36.3633 15.1326 36.6094 14.6404 36.7852 14.1482L37.1719 13.1638L36.4336 12.3904C35.8008 11.7224 35.0625 10.5974 35.0625 9.08569C35.0625 5.99194 38.332 3.46069 42.375 3.46069C46.3828 3.46069 49.6875 5.99194 49.6875 9.08569C49.6875 12.2146 46.3828 14.7107 42.375 14.7107ZM80.9062 0.894287L66.2812 9.33179C65.0508 10.0349 65.1562 11.8279 66.457 12.3552L70.5 14.0076V16.9607C70.5 18.613 72.5742 19.281 73.5234 17.9802L75.0703 15.906L79.0078 17.5232C79.2188 17.6287 79.4297 17.6638 79.6406 17.6638C79.9219 17.6638 80.2031 17.5935 80.4844 17.4529C80.9414 17.1716 81.2227 16.7498 81.3281 16.2224L83.4023 2.61694C83.6133 1.21069 82.1016 0.191162 80.9062 0.894287ZM72.1875 16.9607V14.7107L73.4531 15.238L72.1875 16.9607ZM79.6406 15.9763L74.2266 13.7263L79.1836 6.62476C79.5352 6.06226 78.832 5.42944 78.3398 5.88647L70.8867 12.3552L67.125 10.7732L81.75 2.33569L79.6406 15.9763Z" fill="#828282"/>
</svg>
